<?xml version="1.0" encoding="UTF-8" standalone="no"?><!-- Generator: Gravit.io --><svg xmlns="http://www.w3.org/2000/svg" xmlns:xlink="http://www.w3.org/1999/xlink" style="isolation:isolate" viewBox="0 0 512 512" width="512pt" height="512pt"><defs><clipPath id="_clipPath_ddNxicahfSiTXFHbIdUFJB4QNYVUxKNd"><rect width="512" height="512"/></clipPath></defs><g clip-path="url(#_clipPath_ddNxicahfSiTXFHbIdUFJB4QNYVUxKNd)"><rect width="512" height="512" style="fill:rgb(206,206,206)" fill-opacity="0"/><g><path d=" M 141.683 93.958 L 455 93.958 L 455 402.04 C 455 436.911 432.546 459.437 397.802 459.437 L 141.683 459.479 L 141.683 93.958 Z " fill="rgb(56,56,56)"/><path d=" M 141.683 218.972 L 455 218.972 L 455 421.685 C 455 444.629 432.546 459.452 397.802 459.452 L 141.683 459.479 L 141.683 218.972 Z " fill="rgb(41,41,41)"/><path d="M 166.195 53.33 L 430.485 53.33 C 444.015 53.33 455 64.315 455 77.845 L 455 126.745 C 455 140.275 444.015 151.26 430.485 151.26 L 166.195 151.26 C 152.665 151.26 141.68 140.275 141.68 126.745 L 141.68 77.845 C 141.68 64.315 152.665 53.33 166.195 53.33 Z" style="stroke:none;fill:#383838;stroke-miterlimit:10;"/><path d="M 141.68 90.83 L 455 90.83 C 455 90.83 455 90.83 455 90.83 L 455 151.26 C 455 151.26 455 151.26 455 151.26 L 141.68 151.26 C 141.68 151.26 141.68 151.26 141.68 151.26 L 141.68 90.83 C 141.68 90.83 141.68 90.83 141.68 90.83 Z" style="stroke:none;fill:#383838;stroke-miterlimit:10;"/><path d="M 356.66 151.26 L 436.28 151.26 C 446.612 151.26 455 159.648 455 169.979 L 455 348.711 C 455 359.042 446.612 367.43 436.28 367.43 L 356.66 367.43 C 346.328 367.43 337.94 359.042 337.94 348.711 L 337.94 169.979 C 337.94 159.648 346.328 151.26 356.66 151.26 Z" style="stroke:none;fill:#292929;stroke-miterlimit:10;"/><path d="M 159.087 151.26 L 357.793 151.26 C 367.4 151.26 375.2 159.06 375.2 168.667 L 375.2 350.023 C 375.2 359.63 367.4 367.43 357.793 367.43 L 159.087 367.43 C 149.48 367.43 141.68 359.63 141.68 350.023 L 141.68 168.667 C 141.68 159.06 149.48 151.26 159.087 151.26 Z" style="stroke:none;fill:#525252;stroke-miterlimit:10;"/><path d="M 426.885 66.57 L 431.315 66.57 C 434.982 66.57 437.96 69.546 437.96 73.212 L 437.96 131.368 C 437.96 135.034 434.982 138.01 431.315 138.01 L 426.885 138.01 C 423.218 138.01 420.24 135.034 420.24 131.368 L 420.24 73.212 C 420.24 69.546 423.218 66.57 426.885 66.57 Z" style="stroke:none;fill:#000000;stroke-miterlimit:10;"/><path d=" M 116.84 460 C 81.597 459.946 53.048 433.332 53.016 400.501 Q 52.984 367.67 53.016 373.519 L 366.333 373.519 L 366.333 412.122 C 366.333 438.877 378.111 454.217 402.236 458.649 L 400.159 460 L 116.84 460 Z " fill="rgb(62,62,62)"/></g></g></svg>