<?xml version="1.0" encoding="UTF-8" standalone="no"?><!-- Generator: Gravit.io --><svg xmlns="http://www.w3.org/2000/svg" xmlns:xlink="http://www.w3.org/1999/xlink" style="isolation:isolate" viewBox="0 0 1080 1080" width="1080pt" height="1080pt"><defs><clipPath id="_clipPath_kIGt8KT4g6HzH1ZJAZzuvUQQNb52olyK"><rect width="1080" height="1080"/></clipPath></defs><g clip-path="url(#_clipPath_kIGt8KT4g6HzH1ZJAZzuvUQQNb52olyK)"><circle vector-effect="non-scaling-stroke" cx="540" cy="540.0000000000002" r="411" fill="rgb(0,0,0)"/><clipPath id="_clipPath_26lWrEjYLqDEbompKjycgmt5PpqB5p8f"><circle vector-effect="non-scaling-stroke" cx="540" cy="540.0000000000002" r="411" fill="rgb(0,0,0)"/></clipPath><g clip-path="url(#_clipPath_26lWrEjYLqDEbompKjycgmt5PpqB5p8f)"><g><path d=" M 615.759 477.401 C 642.795 455.42 660.065 421.917 660.065 384.417 C 660.065 318.233 606.272 264.5 540.014 264.5 C 473.756 264.5 419.962 318.233 419.962 384.417 C 419.962 423.084 438.324 457.502 466.812 479.429 C 399.653 497.973 352.52 541.284 352.52 591.699 L 352.52 751.47 L 727.508 751.47 L 727.508 583.508 C 727.508 535.207 681.12 493.888 615.759 477.401 Z " fill-rule="evenodd" fill="rgb(74,134,232)"/><path d="M 409.362 694.06 L 670.638 694.06 C 702.026 694.06 727.51 719.544 727.51 750.934 L 727.51 758.626 C 727.51 790.016 702.026 815.5 670.638 815.5 L 409.362 815.5 C 377.974 815.5 352.49 790.016 352.49 758.626 L 352.49 750.934 C 352.49 719.544 377.974 694.06 409.362 694.06 Z" style="stroke:none;fill:#4A86E8;stroke-miterlimit:10;"/></g></g></g></svg>