<?xml version="1.0" encoding="UTF-8" standalone="no"?><!-- Generator: Gravit.io --><svg xmlns="http://www.w3.org/2000/svg" xmlns:xlink="http://www.w3.org/1999/xlink" style="isolation:isolate" viewBox="0 0 1080 540" width="1080pt" height="540pt"><defs><clipPath id="_clipPath_3AMLvpofOP7LrYvqQP7atBJCjLRqnYFx"><rect width="1080" height="540"/></clipPath></defs><g clip-path="url(#_clipPath_3AMLvpofOP7LrYvqQP7atBJCjLRqnYFx)"><rect width="1080" height="540" style="fill:rgb(0,0,0)" fill-opacity="0"/><path d=" M 657.21 270 L 509.649 417.126 L 509.649 417.126 L 547.043 454.41 L 694.604 307.284 L 842.165 454.41 L 879.56 417.126 L 731.999 270 L 879.56 122.874 L 842.165 85.59 L 694.604 232.716 L 547.043 85.59 L 509.649 122.874 L 657.21 270 Z  M 425.52 22.706 L 425.52 21.6 L 21.6 270 L 425.52 518.4 L 425.52 517.294 C 440.323 531.362 460.335 540 482.349 540 L 997.473 540 C 1043.021 540 1080 503.021 1080 457.473 L 1080 82.527 C 1080 36.979 1043.021 0 997.473 0 L 482.349 0 C 460.335 0 440.323 8.638 425.52 22.706 L 425.52 22.706 Z " fill-rule="evenodd" fill="rgb(255,255,255)"/></g></svg>