<?xml version="1.0" encoding="UTF-8" standalone="no"?><!-- Generator: Gravit.io --><svg xmlns="http://www.w3.org/2000/svg" xmlns:xlink="http://www.w3.org/1999/xlink" style="isolation:isolate" viewBox="0 0 1080 1080" width="1080pt" height="1080pt"><defs><clipPath id="_clipPath_v1qZBDKYv9y5fAd40m7ZU0yHYU8HidB2"><rect width="1080" height="1080"/></clipPath></defs><g clip-path="url(#_clipPath_v1qZBDKYv9y5fAd40m7ZU0yHYU8HidB2)"><circle vector-effect="non-scaling-stroke" cx="540" cy="540" r="411" fill="rgb(255,255,255)"/><path d="M 397.668 259.33 L 682.332 259.33 C 723.366 259.33 756.68 292.644 756.68 333.677 L 756.68 746.323 C 756.68 787.356 723.366 820.67 682.332 820.67 L 397.668 820.67 C 356.634 820.67 323.32 787.356 323.32 746.323 L 323.32 333.677 C 323.32 292.644 356.634 259.33 397.668 259.33 Z" style="stroke:none;fill:#000000;stroke-miterlimit:10;"/><path d="M 378.372 259.33 L 701.628 259.33 C 732.012 259.33 756.68 283.998 756.68 314.381 L 756.68 372.679 C 756.68 403.062 732.012 427.73 701.628 427.73 L 378.372 427.73 C 347.988 427.73 323.32 403.062 323.32 372.679 L 323.32 314.381 C 323.32 283.998 347.988 259.33 378.372 259.33 Z" style="stroke:none;fill:#303030;stroke-miterlimit:10;"/><rect x="323.324" y="328.675" width="233.033" height="168.4" transform="matrix(1,0,0,1,0,0)" fill="rgb(48,48,48)"/><path d="M 382.017 426.63 L 581.313 426.63 C 613.709 426.63 640.01 452.931 640.01 485.326 L 640.01 629.894 C 640.01 662.289 613.709 688.59 581.313 688.59 L 382.017 688.59 C 349.621 688.59 323.32 662.289 323.32 629.894 L 323.32 485.326 C 323.32 452.931 349.621 426.63 382.017 426.63 Z" style="stroke:none;fill:#1A1A1A;stroke-miterlimit:10;"/></g></svg>