<?xml version="1.0" encoding="UTF-8" standalone="no"?><!-- Generator: Gravit.io --><svg xmlns="http://www.w3.org/2000/svg" xmlns:xlink="http://www.w3.org/1999/xlink" style="isolation:isolate" viewBox="0 0 1080 1080" width="1080pt" height="1080pt"><defs><clipPath id="_clipPath_Ar2hV3yHCvfv37KxKxs6dAYDVRyk127T"><rect width="1080" height="1080"/></clipPath></defs><g clip-path="url(#_clipPath_Ar2hV3yHCvfv37KxKxs6dAYDVRyk127T)"><circle vector-effect="non-scaling-stroke" cx="540.0000000381324" cy="540" r="410.9999999999999" fill="rgb(0,0,0)"/><path d=" M 480.452 255.274 C 480.452 222.408 507.134 195.725 540 195.725 C 572.866 195.725 599.548 222.408 599.548 255.274 C 599.548 288.139 572.866 314.822 540 314.822 C 507.134 314.822 480.452 288.139 480.452 255.274 Z  M 495.181 255.274 C 495.181 230.537 515.263 210.454 540 210.454 C 564.737 210.454 584.819 230.537 584.819 255.274 C 584.819 280.01 564.737 300.093 540 300.093 C 515.263 300.093 495.181 280.01 495.181 255.274 Z " fill-rule="evenodd" fill="rgb(179,179,179)"/><path d=" M 758.19 648.432 C 757.72 645.912 757.212 643.368 756.665 640.799 C 756.665 640.487 744.076 620.442 739.786 614.149 Q 706.752 565.692 497.7 297.573 L 577.179 297.573 Q 808.188 567.327 808.188 680.01 C 808.188 792.694 736.206 884.204 639.942 884.204 L 627.386 884.204 C 629.797 886.599 791.794 828.695 758.19 648.432 Z " fill-rule="evenodd" fill="rgb(170,169,169)"/><path d=" M 321.81 648.432 C 322.28 645.912 322.788 643.368 323.335 640.799 C 323.335 640.487 335.924 620.442 340.214 614.149 Q 373.248 565.692 582.3 297.573 L 502.821 297.573 Q 271.812 567.327 271.812 680.01 C 271.812 792.694 343.794 884.204 440.058 884.204 L 452.614 884.204 C 450.203 886.599 288.206 828.695 321.81 648.432 Z " fill-rule="evenodd" fill="rgb(202,200,200)"/><circle vector-effect="non-scaling-stroke" cx="540.0000000381324" cy="297.5734216361731" r="42.299723679243584" fill="rgb(202,200,200)"/><path d=" M 556.189 269.531 L 572.379 297.573 L 556.189 325.615 L 523.809 325.615 L 507.621 297.573 L 523.809 269.531 L 556.189 269.531 Z " fill-rule="evenodd" fill="rgb(153,153,153)"/><path d=" M 501.951 349.708 L 674.628 349.708 L 674.628 338.347 C 674.628 331.32 680.333 325.615 687.36 325.615 L 687.36 325.615 C 694.386 325.615 700.091 331.32 700.091 338.347 L 700.091 386.616 C 700.091 393.643 694.386 399.347 687.36 399.347 L 687.36 399.347 C 680.333 399.347 674.628 393.643 674.628 386.616 L 674.628 375.255 L 501.951 375.255 C 498.127 380.199 492.138 383.384 485.41 383.384 C 473.874 383.384 464.508 374.018 464.508 362.481 C 464.508 350.945 473.874 341.579 485.41 341.579 C 492.138 341.579 498.127 344.764 501.951 349.708 Z " fill-rule="evenodd" fill="rgb(142,142,142)"/></g></svg>