<?xml version="1.0" encoding="UTF-8" standalone="no"?><!-- Generator: Gravit.io --><svg xmlns="http://www.w3.org/2000/svg" xmlns:xlink="http://www.w3.org/1999/xlink" style="isolation:isolate" viewBox="0 0 1080 1080" width="1080pt" height="1080pt"><defs><clipPath id="_clipPath_qCujB3xtpGjKNWCcdtROEODGVTmPxdoM"><rect width="1080" height="1080"/></clipPath></defs><g clip-path="url(#_clipPath_qCujB3xtpGjKNWCcdtROEODGVTmPxdoM)"><circle vector-effect="non-scaling-stroke" cx="540" cy="539.53177099766" r="411" fill="rgb(0,0,0)"/><g><clipPath id="_clipPath_60d1xaCZiygaZoUu4tRrSpqyDaZFzU8x"><path d="M 782.068 742.79 L 297.932 742.79 C 275.479 742.79 257.25 724.561 257.25 702.108 L 257.25 376.952 C 257.25 354.499 275.479 336.27 297.932 336.27 L 782.068 336.27 C 804.521 336.27 822.75 354.499 822.75 376.952 L 822.75 702.108 C 822.75 724.561 804.521 742.79 782.068 742.79 Z" style="stroke:none;fill:#FFFFFF;stroke-miterlimit:10;"/></clipPath><g clip-path="url(#_clipPath_60d1xaCZiygaZoUu4tRrSpqyDaZFzU8x)"><rect x="741.288" y="336.27" width="81.464" height="411.761" transform="matrix(-1,0,0,-1,1564.041,1084.302)" fill="rgb(185,183,183)"/></g><clipPath id="_clipPath_xkotEbn346AabCZ3G631MF2dQUM4TEDE"><path d="M 297.932 336.27 L 782.068 336.27 C 804.521 336.27 822.75 354.499 822.75 376.952 L 822.75 702.108 C 822.75 724.561 804.521 742.79 782.068 742.79 L 297.932 742.79 C 275.479 742.79 257.25 724.561 257.25 702.108 L 257.25 376.952 C 257.25 354.499 275.479 336.27 297.932 336.27 Z" style="stroke:none;fill:#FFFFFF;stroke-miterlimit:10;"/></clipPath><g clip-path="url(#_clipPath_xkotEbn346AabCZ3G631MF2dQUM4TEDE)"><rect x="257.247" y="331.032" width="79.536" height="411.761" transform="matrix(1,0,0,1,0,0)" fill="rgb(255,80,80)"/></g><rect x="333.01" y="336.27" width="84.071" height="406.523" transform="matrix(1,0,0,1,0,0)" fill="rgb(255,173,80)"/><rect x="413.981" y="336.27" width="82.636" height="406.523" transform="matrix(1,0,0,1,0,0)" fill="rgb(240,255,80)"/><rect x="493.812" y="336.27" width="82.341" height="406.523" transform="matrix(1,0,0,1,0,0)" fill="rgb(80,255,150)"/><rect x="573.643" y="336.27" width="82.046" height="406.523" transform="matrix(1,0,0,1,0,0)" fill="rgb(80,165,255)"/><rect x="655.689" y="336.27" width="87.528" height="406.523" transform="matrix(1,0,0,1,0,0)" fill="rgb(173,80,255)"/></g><circle vector-effect="non-scaling-stroke" cx="314.66633986928105" cy="681.1432089061568" r="111.92810457516337" fill="rgb(255,80,80)"/></g></svg>