<?xml version="1.0" encoding="UTF-8" standalone="no"?><!-- Generator: Gravit.io --><svg xmlns="http://www.w3.org/2000/svg" xmlns:xlink="http://www.w3.org/1999/xlink" style="isolation:isolate" viewBox="0 0 45 45" width="45pt" height="45pt"><defs><clipPath id="_clipPath_ynzhJHh80RmSNf3Ghagz2IViePKAlSVk"><rect width="45" height="45"/></clipPath></defs><g clip-path="url(#_clipPath_ynzhJHh80RmSNf3Ghagz2IViePKAlSVk)"><path d=" M 4 22.5 C 4 12.29 12.29 4 22.5 4 C 32.71 4 41 12.29 41 22.5 C 41 32.71 32.71 41 22.5 41 C 12.29 41 4 32.71 4 22.5 Z  M 24.474 28.895 L 24.474 28.895 L 20.379 28.895 L 20.379 28.895 Q 20.363 28.012 20.363 27.819 L 20.363 27.819 L 20.363 27.819 Q 20.363 25.828 21.022 24.543 L 21.022 24.543 L 21.022 24.543 Q 21.68 23.259 23.655 21.653 L 23.655 21.653 L 23.655 21.653 Q 25.631 20.047 26.016 19.549 L 26.016 19.549 L 26.016 19.549 Q 26.61 18.762 26.61 17.815 L 26.61 17.815 L 26.61 17.815 Q 26.61 16.498 25.558 15.558 L 25.558 15.558 L 25.558 15.558 Q 24.506 14.619 22.724 14.619 L 22.724 14.619 L 22.724 14.619 Q 21.006 14.619 19.849 15.598 L 19.849 15.598 L 19.849 15.598 Q 18.693 16.578 18.259 18.585 L 18.259 18.585 L 14.116 18.072 L 14.116 18.072 Q 14.293 15.197 16.565 13.19 L 16.565 13.19 L 16.565 13.19 Q 18.838 11.182 22.531 11.182 L 22.531 11.182 L 22.531 11.182 Q 26.417 11.182 28.714 13.214 L 28.714 13.214 L 28.714 13.214 Q 31.01 15.245 31.01 17.943 L 31.01 17.943 L 31.01 17.943 Q 31.01 19.437 30.167 20.769 L 30.167 20.769 L 30.167 20.769 Q 29.324 22.102 26.562 24.399 L 26.562 24.399 L 26.562 24.399 Q 25.133 25.587 24.787 26.31 L 24.787 26.31 L 24.787 26.31 Q 24.442 27.033 24.474 28.895 L 24.474 28.895 Z  M 24.892 34.966 L 20.379 34.966 L 20.379 30.453 L 24.892 30.453 L 24.892 34.966 L 24.892 34.966 Z " fill-rule="evenodd" fill="rgb(0,0,0)"/></g></svg>