<?xml version="1.0" encoding="UTF-8" standalone="no"?><!-- Generator: Gravit.io --><svg xmlns="http://www.w3.org/2000/svg" xmlns:xlink="http://www.w3.org/1999/xlink" style="isolation:isolate" viewBox="0 0 30 35" width="30pt" height="35pt"><defs><clipPath id="_clipPath_dts6ZdLqFKgnuGOcBHP1Dr15uRzVrid3"><rect width="30" height="35"/></clipPath></defs><g clip-path="url(#_clipPath_dts6ZdLqFKgnuGOcBHP1Dr15uRzVrid3)"><path d=" M 26.257 8.254 C 26.442 7.975 26.539 7.684 26.539 7.385 C 26.539 5.211 21.369 3.446 15 3.446 C 8.631 3.446 3.461 5.211 3.461 7.385 C 3.461 7.684 3.558 7.975 3.743 8.254 L 26.257 8.254 Z " fill-rule="evenodd" fill="rgb(0,0,0)"/><path d=" M 17.3 3.962 L 17.699 3.962 C 18.024 3.962 18.287 3.699 18.287 3.374 L 18.287 2.105 C 18.287 1.78 18.024 1.517 17.699 1.517 L 12.301 1.517 C 11.976 1.517 11.713 1.78 11.713 2.105 L 11.713 3.374 C 11.713 3.699 11.976 3.962 12.301 3.962 L 12.7 3.962 C 12.657 3.962 12.623 3.928 12.623 3.885 L 12.623 2.354 C 12.623 2.312 12.657 2.278 12.7 2.278 L 17.3 2.278 C 17.343 2.278 17.377 2.312 17.377 2.354 L 17.377 3.885 C 17.377 3.928 17.343 3.962 17.3 3.962 Z " fill-rule="evenodd" fill="rgb(0,0,0)"/><path d=" M 23.015 7.946 L 23.015 7.946 L 6.985 7.946 L 6.985 7.946 L 4.014 7.946 L 4.014 10.917 L 4.014 29.082 L 4.014 30.513 C 4.014 32.152 5.345 33.483 6.985 33.483 L 23.015 33.483 C 24.655 33.483 25.986 32.152 25.986 30.513 L 25.986 29.082 L 25.986 10.917 L 25.986 10.917 L 25.986 7.946 L 23.015 7.946 Z  M 11.159 19.551 L 8.342 19.551 L 15 27 L 21.658 19.551 L 18.841 19.551 L 18.841 11 L 11.159 11 L 11.159 19.551 Z " fill-rule="evenodd" fill="rgb(0,0,0)"/></g></svg>