<?xml version="1.0" encoding="UTF-8" standalone="no"?><!-- Generator: Gravit.io --><svg xmlns="http://www.w3.org/2000/svg" xmlns:xlink="http://www.w3.org/1999/xlink" style="isolation:isolate" viewBox="0 0 512 512" width="512pt" height="512pt"><defs><clipPath id="_clipPath_UkEhQQe0YZUl6g6BEarfbvplLZNq5IDX"><rect width="512" height="512"/></clipPath></defs><g clip-path="url(#_clipPath_UkEhQQe0YZUl6g6BEarfbvplLZNq5IDX)"><rect width="512" height="512" style="fill:rgb(206,206,206)"/><g><path d=" M 173.685 151.976 L 374 151.976 L 374 348.944 C 374 371.238 359.644 385.64 337.431 385.64 L 173.685 385.667 L 173.685 151.976 Z " fill="rgb(56,56,56)"/><path d=" M 173.685 231.902 L 374 231.902 L 374 361.504 C 374 376.173 359.644 385.649 337.431 385.649 L 173.685 385.667 L 173.685 231.902 Z " fill="rgb(41,41,41)"/><path d="M 189.363 126 L 358.327 126 C 366.977 126 374 133.023 374 141.673 L 374 172.937 C 374 181.587 366.977 188.61 358.327 188.61 L 189.363 188.61 C 180.713 188.61 173.69 181.587 173.69 172.937 L 173.69 141.673 C 173.69 133.023 180.713 126 189.363 126 Z" style="stroke:none;fill:#383838;stroke-miterlimit:10;"/><path d="M 173.69 149.98 L 374 149.98 C 374 149.98 374 149.98 374 149.98 L 374 188.61 C 374 188.61 374 188.61 374 188.61 L 173.69 188.61 C 173.69 188.61 173.69 188.61 173.69 188.61 L 173.69 149.98 C 173.69 149.98 173.69 149.98 173.69 149.98 Z" style="stroke:none;fill:#383838;stroke-miterlimit:10;"/><path d="M 311.128 188.61 L 362.032 188.61 C 368.637 188.61 374 193.973 374 200.578 L 374 314.852 C 374 321.457 368.637 326.82 362.032 326.82 L 311.128 326.82 C 304.523 326.82 299.16 321.457 299.16 314.852 L 299.16 200.578 C 299.16 193.973 304.523 188.61 311.128 188.61 Z" style="stroke:none;fill:#292929;stroke-miterlimit:10;"/><path d="M 184.819 188.61 L 311.851 188.61 C 317.993 188.61 322.98 193.597 322.98 199.739 L 322.98 315.691 C 322.98 321.833 317.993 326.82 311.851 326.82 L 184.819 326.82 C 178.677 326.82 173.69 321.833 173.69 315.691 L 173.69 199.739 C 173.69 193.597 178.677 188.61 184.819 188.61 Z" style="stroke:none;fill:#525252;stroke-miterlimit:10;"/><path d="M 356.025 134.47 L 358.855 134.47 C 361.198 134.47 363.1 136.373 363.1 138.716 L 363.1 175.894 C 363.1 178.237 361.198 180.14 358.855 180.14 L 356.025 180.14 C 353.682 180.14 351.78 178.237 351.78 175.894 L 351.78 138.716 C 351.78 136.373 353.682 134.47 356.025 134.47 Z" style="stroke:none;fill:#000000;stroke-miterlimit:10;"/><path d=" M 157.802 386 C 135.27 385.966 117.018 368.95 116.997 347.96 Q 116.977 326.97 116.997 330.71 L 317.312 330.71 L 317.312 355.39 C 317.312 372.495 324.842 382.302 340.266 385.136 L 338.938 386 L 157.802 386 Z " fill="rgb(62,62,62)"/></g></g></svg>