<?xml version="1.0" encoding="UTF-8" standalone="no"?><!-- Generator: Gravit.io --><svg xmlns="http://www.w3.org/2000/svg" xmlns:xlink="http://www.w3.org/1999/xlink" style="isolation:isolate" viewBox="0 0 1080 1080" width="1080pt" height="1080pt"><defs><clipPath id="_clipPath_VlApESvNUy57tRgbYy2DCp65eliGP7Ac"><rect width="1080" height="1080"/></clipPath></defs><g clip-path="url(#_clipPath_VlApESvNUy57tRgbYy2DCp65eliGP7Ac)"><circle vector-effect="non-scaling-stroke" cx="540" cy="540" r="500" fill="rgb(0,0,0)" fill-opacity="0.2"/><path d=" M 244.674 697.548 C 232.822 675.449 223.384 651.865 216.714 627.15 L 184.02 627.15 C 157.205 627.15 135.435 605.38 135.435 578.565 L 135.435 504.283 C 135.435 477.468 157.205 455.698 184.02 455.698 L 215.958 455.698 L 215.958 455.698 C 224.818 421.674 238.911 389.752 257.327 360.847 L 235.667 337.347 C 217.494 317.63 218.748 286.868 238.465 268.695 L 293.086 218.352 C 312.803 200.179 343.565 201.433 361.738 221.15 L 383.307 244.551 L 383.307 244.551 C 405.378 232.865 428.913 223.58 453.562 217.045 L 453.562 184.732 C 453.562 157.917 475.332 136.147 502.147 136.147 L 576.429 136.147 C 603.244 136.147 625.014 157.917 625.014 184.732 L 625.014 217.045 C 658.734 225.985 690.369 240.072 719.025 258.412 L 719.025 258.412 L 743.659 235.708 C 763.376 217.535 794.138 218.789 812.311 238.506 L 862.654 293.127 C 880.827 312.844 879.574 343.606 859.856 361.779 L 835.061 384.633 C 846.595 406.527 855.769 429.853 862.243 454.274 L 862.243 454.274 L 895.98 454.274 C 922.795 454.274 944.565 476.044 944.565 502.859 L 944.565 577.141 C 944.565 603.956 922.795 625.726 895.98 625.726 L 862.243 625.726 C 853.33 659.346 839.3 690.893 821.04 719.481 L 821.04 719.481 L 843.286 743.618 C 861.459 763.335 860.205 794.097 840.488 812.27 L 785.867 862.613 C 766.149 880.786 735.387 879.533 717.214 859.815 L 694.924 835.631 C 672.953 847.232 649.535 856.454 625.014 862.955 L 625.014 895.268 C 625.014 922.083 603.244 943.853 576.429 943.853 L 502.147 943.853 C 475.332 943.853 453.562 922.083 453.562 895.268 L 453.562 862.955 C 420.658 854.232 389.74 840.607 361.638 822.913 L 337.306 845.339 C 317.589 863.512 286.827 862.258 268.654 842.541 L 218.311 787.92 C 200.138 768.203 201.392 737.441 221.109 719.268 L 244.674 697.548 Z  M 397.96 670.915 C 325.972 592.81 330.939 470.954 409.044 398.966 C 487.149 326.979 609.005 331.945 680.993 410.05 C 752.98 488.155 748.014 610.011 669.909 681.999 C 591.804 753.987 469.948 749.02 397.96 670.915 L 397.96 670.915 L 397.96 670.915 L 397.96 670.915 L 397.96 670.915 L 397.96 670.915 Z " fill-rule="evenodd" fill="rgb(0,0,0)"/></g></svg>