<?xml version="1.0" encoding="UTF-8" standalone="no"?><!-- Generator: Gravit.io --><svg xmlns="http://www.w3.org/2000/svg" xmlns:xlink="http://www.w3.org/1999/xlink" style="isolation:isolate" viewBox="0 0 1080 1080" width="1080pt" height="1080pt"><defs><clipPath id="_clipPath_oD6Gt7Aj171t08EGZlmhEnj06yBjSZ65"><rect width="1080" height="1080"/></clipPath></defs><g clip-path="url(#_clipPath_oD6Gt7Aj171t08EGZlmhEnj06yBjSZ65)"><circle vector-effect="non-scaling-stroke" cx="540" cy="540" r="411" fill="rgb(255,255,255)"/><path d="M 378.805 258 L 701.195 258 C 732.546 258 758 283.454 758 314.805 L 758 764.195 C 758 795.546 732.546 821 701.195 821 L 378.805 821 C 347.454 821 322 795.546 322 764.195 L 322 314.805 C 322 283.454 347.454 258 378.805 258 Z" style="stroke:none;fill:#000000;stroke-miterlimit:10;"/><path d="M 360.161 355.28 L 719.839 355.28 C 734.89 355.28 747.11 367.5 747.11 382.551 L 747.11 498.729 C 747.11 513.78 734.89 526 719.839 526 L 360.161 526 C 345.11 526 332.89 513.78 332.89 498.729 L 332.89 382.551 C 332.89 367.5 345.11 355.28 360.161 355.28 Z" style="stroke:none;fill:#1A1A1A;stroke-miterlimit:10;"/><path d="M 360.161 540 L 719.839 540 C 734.89 540 747.11 552.22 747.11 567.271 L 747.11 683.449 C 747.11 698.5 734.89 710.72 719.839 710.72 L 360.161 710.72 C 345.11 710.72 332.89 698.5 332.89 683.449 L 332.89 567.271 C 332.89 552.22 345.11 540 360.161 540 Z" style="stroke:none;fill:#1A1A1A;stroke-miterlimit:10;"/><path d="M 366.278 374.67 L 388.902 374.67 C 397.356 374.67 404.22 381.532 404.22 389.985 L 404.22 389.985 C 404.22 398.438 397.356 405.3 388.902 405.3 L 366.278 405.3 C 357.824 405.3 350.96 398.438 350.96 389.985 L 350.96 389.985 C 350.96 381.532 357.824 374.67 366.278 374.67 Z" style="stroke:none;fill:#FEFEFE;stroke-miterlimit:10;"/><path d="M 366.278 415.78 L 388.902 415.78 C 397.356 415.78 404.22 422.642 404.22 431.095 L 404.22 431.095 C 404.22 439.548 397.356 446.41 388.902 446.41 L 366.278 446.41 C 357.824 446.41 350.96 439.548 350.96 431.095 L 350.96 431.095 C 350.96 422.642 357.824 415.78 366.278 415.78 Z" style="stroke:none;fill:#F2F2F2;stroke-miterlimit:10;"/><path d="M 366.278 458.34 L 388.902 458.34 C 397.356 458.34 404.22 465.202 404.22 473.655 L 404.22 473.655 C 404.22 482.108 397.356 488.97 388.902 488.97 L 366.278 488.97 C 357.824 488.97 350.96 482.108 350.96 473.655 L 350.96 473.655 C 350.96 465.202 357.824 458.34 366.278 458.34 Z" style="stroke:none;fill:#E3E3E3;stroke-miterlimit:10;"/><g><path d="M 632.083 363.24 L 706.337 363.24 C 717.04 363.24 725.73 371.93 725.73 382.633 L 725.73 490.267 C 725.73 500.97 717.04 509.66 706.337 509.66 L 632.083 509.66 C 621.38 509.66 612.69 500.97 612.69 490.267 L 612.69 382.633 C 612.69 371.93 621.38 363.24 632.083 363.24 Z" style="stroke:none;fill:#E3E3E3;stroke-miterlimit:10;"/><path d="M 627.05 363.24 L 711.37 363.24 C 719.295 363.24 725.73 369.675 725.73 377.601 L 725.73 392.809 C 725.73 400.735 719.295 407.17 711.37 407.17 L 627.05 407.17 C 619.125 407.17 612.69 400.735 612.69 392.809 L 612.69 377.601 C 612.69 369.675 619.125 363.24 627.05 363.24 Z" style="stroke:none;fill:#FEFEFE;stroke-miterlimit:10;"/><rect x="612.693" y="381.328" width="60.783" height="43.924" transform="matrix(1,0,0,1,0,0)" fill="rgb(254,254,254)"/><path d="M 627.999 406.88 L 679.981 406.88 C 688.43 406.88 695.29 413.74 695.29 422.19 L 695.29 459.9 C 695.29 468.35 688.43 475.21 679.981 475.21 L 627.999 475.21 C 619.55 475.21 612.69 468.35 612.69 459.9 L 612.69 422.19 C 612.69 413.74 619.55 406.88 627.999 406.88 Z" style="stroke:none;fill:#F2F2F2;stroke-miterlimit:10;"/></g><path d="M 367.092 552.15 L 441.338 552.15 C 452.041 552.15 460.73 560.84 460.73 571.543 L 460.73 679.177 C 460.73 689.88 452.041 698.57 441.338 698.57 L 367.092 698.57 C 356.389 698.57 347.7 689.88 347.7 679.177 L 347.7 571.543 C 347.7 560.84 356.389 552.15 367.092 552.15 Z" style="stroke:none;fill:#538E76;stroke-miterlimit:10;"/><path d="M 362.059 552.15 L 446.371 552.15 C 454.296 552.15 460.73 558.585 460.73 566.511 L 460.73 581.719 C 460.73 589.645 454.296 596.08 446.371 596.08 L 362.059 596.08 C 354.134 596.08 347.7 589.645 347.7 581.719 L 347.7 566.511 C 347.7 558.585 354.134 552.15 362.059 552.15 Z" style="stroke:none;fill:#6CB999;stroke-miterlimit:10;"/><rect x="347.699" y="570.238" width="60.783" height="43.924" transform="matrix(1,0,0,1,0,0)" fill="rgb(108,185,153)"/><path d="M 363.009 595.79 L 414.991 595.79 C 423.44 595.79 430.3 602.649 430.3 611.098 L 430.3 648.802 C 430.3 657.251 423.44 664.11 414.991 664.11 L 363.009 664.11 C 354.56 664.11 347.7 657.251 347.7 648.802 L 347.7 611.098 C 347.7 602.649 354.56 595.79 363.009 595.79 Z" style="stroke:none;fill:#88BDA7;stroke-miterlimit:10;"/><path d="M 491.272 552.15 L 565.518 552.15 C 576.221 552.15 584.91 560.84 584.91 571.543 L 584.91 679.177 C 584.91 689.88 576.221 698.57 565.518 698.57 L 491.272 698.57 C 480.569 698.57 471.88 689.88 471.88 679.177 L 471.88 571.543 C 471.88 560.84 480.569 552.15 491.272 552.15 Z" style="stroke:none;fill:#036ABF;stroke-miterlimit:10;"/><path d="M 486.239 552.15 L 570.551 552.15 C 578.476 552.15 584.91 558.585 584.91 566.511 L 584.91 581.719 C 584.91 589.645 578.476 596.08 570.551 596.08 L 486.239 596.08 C 478.314 596.08 471.88 589.645 471.88 581.719 L 471.88 566.511 C 471.88 558.585 478.314 552.15 486.239 552.15 Z" style="stroke:none;fill:#6DABDF;stroke-miterlimit:10;"/><rect x="471.879" y="570.238" width="60.783" height="43.924" transform="matrix(1,0,0,1,0,0)" fill="rgb(109,171,223)"/><path d="M 487.189 595.79 L 539.171 595.79 C 547.62 595.79 554.48 602.649 554.48 611.098 L 554.48 648.802 C 554.48 657.251 547.62 664.11 539.171 664.11 L 487.189 664.11 C 478.74 664.11 471.88 657.251 471.88 648.802 L 471.88 611.098 C 471.88 602.649 478.74 595.79 487.189 595.79 Z" style="stroke:none;fill:#BDE1FF;stroke-miterlimit:10;"/><path d="M 614.143 552.15 L 688.397 552.15 C 699.1 552.15 707.79 560.84 707.79 571.543 L 707.79 679.177 C 707.79 689.88 699.1 698.57 688.397 698.57 L 614.143 698.57 C 603.44 698.57 594.75 689.88 594.75 679.177 L 594.75 571.543 C 594.75 560.84 603.44 552.15 614.143 552.15 Z" style="stroke:none;fill:#6A3968;stroke-miterlimit:10;"/><path d="M 609.11 552.15 L 693.43 552.15 C 701.355 552.15 707.79 558.585 707.79 566.511 L 707.79 581.719 C 707.79 589.645 701.355 596.08 693.43 596.08 L 609.11 596.08 C 601.185 596.08 594.75 589.645 594.75 581.719 L 594.75 566.511 C 594.75 558.585 601.185 552.15 609.11 552.15 Z" style="stroke:none;fill:#B880BC;stroke-miterlimit:10;"/><rect x="594.755" y="570.238" width="60.783" height="43.924" transform="matrix(1,0,0,1,0,0)" fill="rgb(184,128,188)"/><path d="M 610.061 595.79 L 662.049 595.79 C 670.499 595.79 677.36 602.649 677.36 611.098 L 677.36 648.802 C 677.36 657.251 670.499 664.11 662.049 664.11 L 610.061 664.11 C 601.611 664.11 594.75 657.251 594.75 648.802 L 594.75 611.098 C 594.75 602.649 601.611 595.79 610.061 595.79 Z" style="stroke:none;fill:#8F5689;stroke-miterlimit:10;"/><g clip-path="url(#_clipPath_u49daLwptsgqboqmty9lJ0LUcLAyE00Q)"><text transform="matrix(1,0,0,1,347.157,331.131)" style="font-family:'Open Sans';font-weight:400;font-size:60px;font-style:normal;fill:#ffffff;stroke:none;">Settings</text></g><defs><clipPath id="_clipPath_u49daLwptsgqboqmty9lJ0LUcLAyE00Q"><rect x="0" y="0" width="237.755" height="81.284" transform="matrix(1,0,0,1,347.157,267)"/></clipPath></defs></g></svg>