<?xml version="1.0" encoding="UTF-8" standalone="no"?><!-- Generator: Gravit.io --><svg xmlns="http://www.w3.org/2000/svg" xmlns:xlink="http://www.w3.org/1999/xlink" style="isolation:isolate" viewBox="0 0 1080 1080" width="1080pt" height="1080pt"><defs><clipPath id="_clipPath_hJocAZFFDYqF0s6PYgFnaZvWald0uY1q"><rect width="1080" height="1080"/></clipPath></defs><g clip-path="url(#_clipPath_hJocAZFFDYqF0s6PYgFnaZvWald0uY1q)"><path d="M 281.446 30.15 L 798.554 30.15 C 873.093 30.15 933.61 90.666 933.61 165.205 L 933.61 914.795 C 933.61 989.334 873.093 1049.85 798.554 1049.85 L 281.446 1049.85 C 206.907 1049.85 146.39 989.334 146.39 914.795 L 146.39 165.205 C 146.39 90.666 206.907 30.15 281.446 30.15 Z" style="stroke:none;fill:#538E76;stroke-miterlimit:10;"/><path d="M 246.395 30.15 L 833.605 30.15 C 888.799 30.15 933.61 74.961 933.61 130.155 L 933.61 236.055 C 933.61 291.249 888.799 336.06 833.605 336.06 L 246.395 336.06 C 191.201 336.06 146.39 291.249 146.39 236.055 L 146.39 130.155 C 146.39 74.961 191.201 30.15 246.395 30.15 Z" style="stroke:none;fill:#6CB999;stroke-miterlimit:10;"/><rect x="146.393" y="156.113" width="423.321" height="305.91" transform="matrix(1,0,0,1,0,0)" fill="rgb(108,185,153)"/><path d="M 253.015 334.06 L 615.045 334.06 C 673.893 334.06 721.67 381.837 721.67 440.684 L 721.67 703.296 C 721.67 762.143 673.893 809.92 615.045 809.92 L 253.015 809.92 C 194.167 809.92 146.39 762.143 146.39 703.296 L 146.39 440.684 C 146.39 381.837 194.167 334.06 253.015 334.06 Z" style="stroke:none;fill:#88BDA7;stroke-miterlimit:10;"/><g clip-path="url(#_clipPath_F8XVPvmEj96aAsJNP7BXhegyzaKbmWOS)"><text transform="matrix(1,0,0,1,485.503,257.405)" style="font-family:'Ubuntu';font-weight:400;font-size:200px;font-style:normal;fill:#000000;stroke:none;">WEB</text></g><defs><clipPath id="_clipPath_F8XVPvmEj96aAsJNP7BXhegyzaKbmWOS"><rect x="0" y="0" width="465.607" height="254" transform="matrix(1,0,0,1,468,56.105)"/></clipPath></defs></g></svg>